<svg xmlns="http://www.w3.org/2000/svg" version="1.1" xmlns:xlink="http://www.w3.org/1999/xlink" xmlns:svgjs="http://svgjs.dev/svgjs" width="300" height="300" viewBox="0 0 2000 1500"><rect width="2000" height="1500" fill="#f5f5f5"></rect><g transform="matrix(0.75,0,0,0.75,250.79740753462647,67.30323886639667)"><svg viewBox="0 0 271 247" data-background-color="#ffffff" preserveAspectRatio="xMidYMid meet" height="1822" width="2000" xmlns="http://www.w3.org/2000/svg" xmlns:xlink="http://www.w3.org/1999/xlink"><g id="tight-bounds" transform="matrix(1,0,0,1,-0.14406496125585022,-0.09999999999999432)"><svg viewBox="0 0 271.2881299225117 247.2" height="247.2" width="271.2881299225117"><g><svg viewBox="0 0 395.52 360.40111311883373" height="247.2" width="271.2881299225117"><g transform="matrix(1,0,0,1,0,259.1055338999248)"><svg viewBox="0 0 395.52 101.29557921890894" height="101.29557921890894" width="395.52"><g id="textblocktransform"><svg viewBox="0 0 395.52 101.29557921890894" height="101.29557921890894" width="395.52" id="textblock"><g><svg viewBox="0 0 395.52 64.5595497185741" height="64.5595497185741" width="395.52"><g transform="matrix(1,0,0,1,0,0)"><svg width="395.52" viewBox="5.4 -33 266.48 43.5" height="64.5595497185741" data-palette-color="#233565"><path d="M27.5-33L31.3-33 31.3 0 26.35 0 12.55-22.1 9.05-28.3 9-28.3 9.2-23.3 9.2 0 5.4 0 5.4-33 10.35-33 24.1-11 27.65-4.65 27.7-4.65 27.5-9.7 27.5-33ZM51.8 0.5L51.8 0.5Q48.25 0.5 45.47-1.05 42.7-2.6 41.15-5.53 39.6-8.45 39.6-12.5L39.6-12.5Q39.6-16.55 41.15-19.48 42.7-22.4 45.4-23.95 48.1-25.5 51.55-25.5L51.55-25.5Q55.05-25.5 57.52-24 60-22.5 61.3-19.93 62.6-17.35 62.6-14.15L62.6-14.15Q62.6-13.3 62.55-12.6 62.5-11.9 62.4-11.35L62.4-11.35 42.2-11.35 42.2-14.9 60.65-14.9 58.6-14.5Q58.6-18.1 56.62-20.05 54.65-22 51.45-22L51.45-22Q49-22 47.22-20.88 45.45-19.75 44.47-17.63 43.5-15.5 43.5-12.5L43.5-12.5Q43.5-9.55 44.5-7.4 45.5-5.25 47.32-4.13 49.15-3 51.7-3L51.7-3Q54.45-3 56.17-4.05 57.9-5.1 58.95-6.9L58.95-6.9 62.1-5.05Q61.15-3.35 59.67-2.1 58.2-0.85 56.22-0.18 54.25 0.5 51.8 0.5ZM95.25-4.65L101.55-25 106-25 97.3 0 93.3 0 86.25-19.9 79.6 0 75.6 0 66.9-25 71.35-25 77.65-4.65 84.45-25 88.45-25 95.25-4.65ZM120.99 0.5L120.99 0.5Q117.34 0.5 114.27-1.05 111.19-2.6 109.54-5.45L109.54-5.45 112.94-7.9Q114.04-5.6 116.17-4.3 118.29-3 121.29-3L121.29-3Q123.94-3 125.44-4.03 126.94-5.05 126.94-6.7L126.94-6.7Q126.94-7.75 126.27-8.63 125.59-9.5 123.69-9.9L123.69-9.9 117.69-11.15Q114.04-11.9 112.47-13.65 110.89-15.4 110.89-18L110.89-18Q110.89-20.05 112.07-21.75 113.24-23.45 115.42-24.48 117.59-25.5 120.54-25.5L120.54-25.5Q124.24-25.5 126.79-24.05 129.34-22.6 130.59-19.95L130.59-19.95 127.24-17.75Q126.39-19.95 124.49-20.98 122.59-22 120.54-22L120.54-22Q118.74-22 117.47-21.5 116.19-21 115.52-20.13 114.84-19.25 114.84-18.15L114.84-18.15Q114.84-17.05 115.59-16.13 116.34-15.2 118.39-14.8L118.39-14.8 124.64-13.5Q128.14-12.8 129.54-11.2 130.94-9.6 130.94-7.3L130.94-7.3Q130.94-4.95 129.69-3.18 128.44-1.4 126.19-0.45 123.94 0.5 120.99 0.5ZM139.09-33L150.74-33Q154.09-33 156.57-31.78 159.04-30.55 160.44-28.3 161.84-26.05 161.84-22.95L161.84-22.95Q161.84-19.85 160.44-17.6 159.04-15.35 156.57-14.13 154.09-12.9 150.74-12.9L150.74-12.9 143.09-12.9 143.09 0 139.09 0 139.09-33ZM143.09-16.65L150.14-16.65Q154.04-16.65 155.84-18.28 157.64-19.9 157.64-22.95L157.64-22.95Q157.64-26.05 155.84-27.65 154.04-29.25 150.14-29.25L150.14-29.25 143.09-29.25 143.09-16.65ZM183.44-9.25L183.44-16.15Q183.44-18.95 181.94-20.48 180.44-22 177.69-22L177.69-22Q175.09-22 173.29-20.88 171.49-19.75 170.64-17.25L170.64-17.25 167.39-19.25Q168.39-22.05 171.09-23.78 173.79-25.5 177.79-25.5L177.79-25.5Q180.49-25.5 182.69-24.58 184.89-23.65 186.16-21.78 187.44-19.9 187.44-16.95L187.44-16.95 187.44-4.85Q187.44-3.05 189.34-3.05L189.34-3.05Q190.29-3.05 191.19-3.3L191.19-3.3 190.99-0.15Q189.99 0.35 188.39 0.35L188.39 0.35Q186.94 0.35 185.79-0.2 184.64-0.75 183.99-1.88 183.34-3 183.34-4.7L183.34-4.7 183.34-5.2 184.34-5.05Q183.74-3.1 182.29-1.88 180.84-0.65 179.04-0.08 177.24 0.5 175.49 0.5L175.49 0.5Q173.29 0.5 171.39-0.25 169.49-1 168.36-2.53 167.24-4.05 167.24-6.3L167.24-6.3Q167.24-9.1 169.11-10.93 170.99-12.75 174.34-13.4L174.34-13.4 184.24-15.35 184.24-12.05 176.19-10.4Q173.74-9.9 172.54-9 171.34-8.1 171.34-6.5L171.34-6.5Q171.34-4.95 172.56-3.98 173.79-3 176.04-3L176.04-3Q177.49-3 178.81-3.38 180.14-3.75 181.19-4.53 182.24-5.3 182.84-6.48 183.44-7.65 183.44-9.25L183.44-9.25ZM201.14 10.5L197.14 10.5 197.14-25 200.64-25 200.99-18.9 200.44-19.6Q201.09-21.35 202.39-22.68 203.69-24 205.54-24.75 207.39-25.5 209.54-25.5L209.54-25.5Q212.59-25.5 215.16-23.95 217.74-22.4 219.29-19.5 220.84-16.6 220.84-12.5L220.84-12.5Q220.84-8.45 219.26-5.53 217.69-2.6 215.09-1.05 212.49 0.5 209.39 0.5L209.39 0.5Q206.29 0.5 203.96-1.03 201.64-2.55 200.64-4.9L200.64-4.9 201.14-5.65 201.14 10.5ZM208.99-3L208.99-3Q212.69-3 214.76-5.6 216.84-8.2 216.84-12.5L216.84-12.5Q216.84-16.8 214.81-19.4 212.79-22 209.14-22L209.14-22Q206.74-22 204.94-20.83 203.14-19.65 202.14-17.53 201.14-15.4 201.14-12.5L201.14-12.5Q201.14-9.65 202.11-7.5 203.09-5.35 204.86-4.17 206.64-3 208.99-3ZM238.93 0.5L238.93 0.5Q235.38 0.5 232.61-1.05 229.83-2.6 228.28-5.53 226.73-8.45 226.73-12.5L226.73-12.5Q226.73-16.55 228.28-19.48 229.83-22.4 232.53-23.95 235.23-25.5 238.68-25.5L238.68-25.5Q242.18-25.5 244.66-24 247.13-22.5 248.43-19.93 249.73-17.35 249.73-14.15L249.73-14.15Q249.73-13.3 249.68-12.6 249.63-11.9 249.53-11.35L249.53-11.35 229.33-11.35 229.33-14.9 247.78-14.9 245.73-14.5Q245.73-18.1 243.76-20.05 241.78-22 238.58-22L238.58-22Q236.13-22 234.36-20.88 232.58-19.75 231.61-17.63 230.63-15.5 230.63-12.5L230.63-12.5Q230.63-9.55 231.63-7.4 232.63-5.25 234.46-4.13 236.28-3 238.83-3L238.83-3Q241.58-3 243.31-4.05 245.03-5.1 246.08-6.9L246.08-6.9 249.23-5.05Q248.28-3.35 246.81-2.1 245.33-0.85 243.36-0.18 241.38 0.5 238.93 0.5ZM261.33 0L257.33 0 257.33-25 260.58-25 261.13-20.9Q262.18-23.2 264.21-24.35 266.23-25.5 269.13-25.5L269.13-25.5Q269.78-25.5 270.56-25.4 271.33-25.3 271.88-25L271.88-25 271.18-21.35Q270.63-21.55 269.98-21.65 269.33-21.75 268.13-21.75L268.13-21.75Q266.58-21.75 265.01-20.85 263.43-19.95 262.38-18.13 261.33-16.3 261.33-13.5L261.33-13.5 261.33 0Z" opacity="1" transform="matrix(1,0,0,1,0,0)" fill="#233565" class="wordmark-text-0" data-fill-palette-color="primary" id="text-0"></path></svg></g></svg></g><g transform="matrix(1,0,0,1,75.54432,79.8005099779362)"><svg viewBox="0 0 244.43135999999998 21.495069240972732" height="21.495069240972732" width="244.43135999999998"><g transform="matrix(1,0,0,1,0,0)"><svg width="244.43135999999998" viewBox="1.3 -35.35 407.06 35.800000000000004" height="21.495069240972732" data-palette-color="#233565"><path d="M16.8-12.55L16.8 0 12.75 0 12.75-12.5 1.3-33.7 6-33.7 8.55-28.75Q11.15-23.75 12.7-20.6 14.25-17.45 14.5-16.8L14.5-16.8 14.75-16.2Q15.2-17.45 21.1-28.75L21.1-28.75 23.65-33.7 28.35-33.7 16.8-12.55ZM55.6-12.6L55.6-12.6Q55.6-6.95 52.4-3.25 49.2 0.45 43.6 0.45L43.6 0.45Q38.15 0.45 34.97-3.23 31.8-6.9 31.8-12.5L31.8-12.5Q31.8-18.15 35.07-21.93 38.35-25.7 43.6-25.7L43.6-25.7Q49.35-25.7 52.47-22 55.6-18.3 55.6-12.6ZM35.9-12.55L35.9-12.55Q35.9-8.6 38-5.83 40.1-3.05 43.6-3.05L43.6-3.05Q47.4-3.05 49.45-5.78 51.5-8.5 51.5-12.55L51.5-12.55Q51.5-16.75 49.55-19.48 47.6-22.2 43.6-22.2L43.6-22.2Q40-22.2 37.95-19.4 35.9-16.6 35.9-12.55ZM81.09-25.35L81.09 0 77.15 0 77.15-4.4Q75.15 0.3 69.2 0.3L69.2 0.3Q65.45 0.3 63.27-1.93 61.1-4.15 61.1-7.9L61.1-7.9 61.1-25.35 65.05-25.35 65.05-8.9Q65.05-6.15 66.45-4.7 67.84-3.25 70.25-3.25L70.25-3.25Q73.4-3.25 75.27-5.45 77.15-7.65 77.15-11.4L77.15-11.4 77.15-25.35 81.09-25.35ZM92.29-13.85L92.29 0 88.34 0 88.39-25.35 92.29-25.35 92.29-20.9Q94.29-25.6 99.19-25.6L99.19-25.6Q100.09-25.6 100.59-25.5L100.59-25.5 100.59-21.6Q99.54-21.95 98.44-21.95L98.44-21.95Q95.79-21.95 94.04-19.5 92.29-17.05 92.29-13.85L92.29-13.85ZM135.99-17.45L135.99 0 132.04 0 132.04-16.4Q132.04-19.2 130.61-20.68 129.19-22.15 126.89-22.15L126.89-22.15Q124.04-22.15 121.96-19.95 119.89-17.75 119.89-13.85L119.89-13.85 119.89 0 115.99 0 115.99-25.35 119.89-25.35 119.89-20.95Q122.14-25.7 127.89-25.7L127.89-25.7Q131.59-25.7 133.79-23.45 135.99-21.2 135.99-17.45L135.99-17.45ZM161.49-5L161.49-1.3Q158.54 0.25 154.28 0.25L154.28 0.25Q148.53 0.25 145.01-3.28 141.49-6.8 141.49-12.6L141.49-12.6Q141.49-18.65 144.64-22.15 147.78-25.65 152.74-25.65L152.74-25.65Q157.49-25.65 160.29-22.6 163.09-19.55 163.09-13.95L163.09-13.95Q163.09-12.35 162.84-11L162.84-11 145.53-11Q145.99-7.25 148.39-5.25 150.78-3.25 154.69-3.25L154.69-3.25Q158.94-3.25 161.49-5L161.49-5ZM152.74-22.2L152.74-22.2Q149.89-22.2 147.89-20.15 145.89-18.1 145.53-14.3L145.53-14.3 159.14-14.3 159.14-15.3Q159.14-18.45 157.44-20.33 155.74-22.2 152.74-22.2ZM181.63-8.3L179.33 0 174.48 0 166.68-25.35 170.88-25.35 173.33-16.95Q174.63-12.55 175.51-9.28 176.38-6 176.63-4.9L176.63-4.9 176.88-3.85Q177.63-7.05 180.53-17L180.53-17 182.93-25.35 187.13-25.35 189.58-17 193.33-3.8Q194.03-6.75 197.18-17L197.18-17 199.73-25.35 203.78-25.35 195.78 0 190.93 0 188.53-8.3 185.03-20.95Q184.28-17.75 181.63-8.3L181.63-8.3ZM223.93-6.75L223.93-6.75Q223.93-3.5 221.66-1.6 219.38 0.3 215.43 0.3L215.43 0.3Q210.83 0.3 207.98-1.25L207.98-1.25 207.98-5.1Q211.33-3.1 215.18-3.1L215.18-3.1Q217.48-3.1 218.68-4 219.88-4.9 219.88-6.45L219.88-6.45Q219.88-8.25 218.56-9.25 217.23-10.25 214.13-11.5L214.13-11.5Q211.28-12.6 209.56-14.25 207.83-15.9 207.83-18.7L207.83-18.7Q207.83-21.85 210.21-23.73 212.58-25.6 216.13-25.6L216.13-25.6Q220.08-25.6 222.48-24.5L222.48-24.5 222.48-20.75Q220.18-22.15 216.18-22.15L216.18-22.15Q214.18-22.15 213-21.23 211.83-20.3 211.83-18.85L211.83-18.85Q211.83-17.95 212.18-17.28 212.53-16.6 213.56-15.95 214.58-15.3 215.06-15.08 215.53-14.85 217.13-14.15L217.13-14.15Q220.33-12.85 222.13-11.2 223.93-9.55 223.93-6.75ZM248.33-3.05L248.33-3.05Q251.03-3.05 252.63-4.58 254.23-6.1 254.23-8.45L254.23-8.45 254.23-11.7 249.83-11.7Q246.63-11.7 245.03-10.45 243.43-9.2 243.43-7.3 243.43-5.4 244.68-4.23 245.93-3.05 248.33-3.05ZM254.28 0L254.28-3Q252.33 0.25 247.18 0.25L247.18 0.25Q243.63 0.25 241.45-1.85 239.28-3.95 239.28-7.15L239.28-7.15Q239.28-10.8 242.05-12.83 244.83-14.85 249.63-14.85L249.63-14.85 254.23-14.85 254.23-16.15Q254.23-19.15 252.88-20.68 251.53-22.2 248.33-22.2L248.33-22.2Q244.28-22.2 241.13-20.05L241.13-20.05 241.13-24Q243.98-25.75 248.63-25.75L248.63-25.75Q258.18-25.75 258.18-16.05L258.18-16.05 258.18 0 254.28 0ZM269.07-13.85L269.07 0 265.12 0 265.17-25.35 269.07-25.35 269.07-20.9Q271.07-25.6 275.97-25.6L275.97-25.6Q276.87-25.6 277.37-25.5L277.37-25.5 277.37-21.6Q276.32-21.95 275.22-21.95L275.22-21.95Q272.57-21.95 270.82-19.5 269.07-17.05 269.07-13.85L269.07-13.85ZM299.97-5L299.97-1.3Q297.02 0.25 292.77 0.25L292.77 0.25Q287.02 0.25 283.5-3.28 279.97-6.8 279.97-12.6L279.97-12.6Q279.97-18.65 283.12-22.15 286.27-25.65 291.22-25.65L291.22-25.65Q295.97-25.65 298.77-22.6 301.57-19.55 301.57-13.95L301.57-13.95Q301.57-12.35 301.32-11L301.32-11 284.02-11Q284.47-7.25 286.87-5.25 289.27-3.25 293.17-3.25L293.17-3.25Q297.42-3.25 299.97-5L299.97-5ZM291.22-22.2L291.22-22.2Q288.37-22.2 286.37-20.15 284.37-18.1 284.02-14.3L284.02-14.3 297.62-14.3 297.62-15.3Q297.62-18.45 295.92-20.33 294.22-22.2 291.22-22.2ZM338.87-17.35L338.87 0 334.92 0 334.92-16.4Q334.92-19.15 333.49-20.65 332.07-22.15 329.77-22.15L329.77-22.15Q326.97-22.15 324.87-20 322.77-17.85 322.77-13.85L322.77-13.85 322.77 0 318.87 0 318.87-35.35 322.77-35.35 322.77-20.95Q325.02-25.7 330.77-25.7L330.77-25.7Q334.42-25.7 336.64-23.45 338.87-21.2 338.87-17.35L338.87-17.35ZM364.36-5L364.36-1.3Q361.41 0.25 357.16 0.25L357.16 0.25Q351.41 0.25 347.89-3.28 344.36-6.8 344.36-12.6L344.36-12.6Q344.36-18.65 347.51-22.15 350.66-25.65 355.61-25.65L355.61-25.65Q360.36-25.65 363.16-22.6 365.96-19.55 365.96-13.95L365.96-13.95Q365.96-12.35 365.71-11L365.71-11 348.41-11Q348.86-7.25 351.26-5.25 353.66-3.25 357.56-3.25L357.56-3.25Q361.81-3.25 364.36-5L364.36-5ZM355.61-22.2L355.61-22.2Q352.76-22.2 350.76-20.15 348.76-18.1 348.41-14.3L348.41-14.3 362.01-14.3 362.01-15.3Q362.01-18.45 360.31-20.33 358.61-22.2 355.61-22.2ZM375.86-13.85L375.86 0 371.91 0 371.96-25.35 375.86-25.35 375.86-20.9Q377.86-25.6 382.76-25.6L382.76-25.6Q383.66-25.6 384.16-25.5L384.16-25.5 384.16-21.6Q383.11-21.95 382.01-21.95L382.01-21.95Q379.36-21.95 377.61-19.5 375.86-17.05 375.86-13.85L375.86-13.85ZM406.76-5L406.76-1.3Q403.81 0.25 399.56 0.25L399.56 0.25Q393.81 0.25 390.28-3.28 386.76-6.8 386.76-12.6L386.76-12.6Q386.76-18.65 389.91-22.15 393.06-25.65 398.01-25.65L398.01-25.65Q402.76-25.65 405.56-22.6 408.36-19.55 408.36-13.95L408.36-13.95Q408.36-12.35 408.11-11L408.11-11 390.81-11Q391.26-7.25 393.66-5.25 396.06-3.25 399.96-3.25L399.96-3.25Q404.21-3.25 406.76-5L406.76-5ZM398.01-22.2L398.01-22.2Q395.16-22.2 393.16-20.15 391.16-18.1 390.81-14.3L390.81-14.3 404.41-14.3 404.41-15.3Q404.41-18.45 402.71-20.33 401.01-22.2 398.01-22.2Z" opacity="1" transform="matrix(1,0,0,1,0,0)" fill="#233565" class="slogan-text-1" data-fill-palette-color="secondary" id="text-1"></path></svg></g></svg></g></svg></g></svg></g><g transform="matrix(1,0,0,1,83.4481933093997,0)"><svg viewBox="0 0 228.62361338120058 228.62361338120058" height="228.62361338120058" width="228.62361338120058"><g><svg></svg></g><g id="icon-0"><svg viewBox="0 0 228.62361338120058 228.62361338120058" height="228.62361338120058" width="228.62361338120058"><g><path d="M0 114.312c0-63.133 51.179-114.312 114.312-114.312 63.133 0 114.312 51.179 114.312 114.312 0 63.133-51.179 114.312-114.312 114.312-63.133 0-114.312-51.179-114.312-114.312zM114.312 222.802c59.917 0 108.49-48.573 108.49-108.49 0-59.917-48.573-108.49-108.49-108.49-59.917 0-108.49 48.573-108.49 108.49 0 59.917 48.573 108.49 108.49 108.49z" data-fill-palette-color="accent" fill="#8bd8bc" stroke="transparent"></path><ellipse rx="113.1686886236943" ry="113.1686886236943" cx="114.31180669060029" cy="114.31180669060029" fill="#8bd8bc" stroke="transparent" stroke-width="0" fill-opacity="1" data-fill-palette-color="accent"></ellipse></g><g transform="matrix(1,0,0,1,46.973908734106686,55.727835468450856)"><svg viewBox="0 0 134.6757959129872 117.16794244429887" height="117.16794244429887" width="134.6757959129872"><g><svg xmlns="http://www.w3.org/2000/svg" xmlns:xlink="http://www.w3.org/1999/xlink" version="1.1" x="0" y="0" viewBox="0 8 100 87" enable-background="new 0 0 100 100" xml:space="preserve" height="117.16794244429887" width="134.6757959129872" class="icon-cg-0" data-fill-palette-color="quaternary" id="cg-0"><rect y="8" width="81" height="12" fill="#ffffff" data-fill-palette-color="quaternary"></rect><rect y="83" width="56" height="12" fill="#ffffff" data-fill-palette-color="quaternary"></rect><rect y="26" width="100" height="13" fill="#ffffff" data-fill-palette-color="quaternary"></rect><rect y="45" width="100" height="13" fill="#ffffff" data-fill-palette-color="quaternary"></rect><rect y="64" width="100" height="12" fill="#ffffff" data-fill-palette-color="quaternary"></rect></svg></g></svg></g></svg></g></svg></g><g></g></svg></g><defs></defs></svg><rect width="271.2881299225117" height="247.2" fill="none" stroke="none" visibility="hidden"></rect></g></svg></g></svg>